HIERARCHY
ROOT Hips
{
    OFFSET 0.000000 0.000000 0.000000
    CHANNELS 6 Xposition Yposition Zposition Zrotation Xrotation Yrotation
    JOINT Spine
    {
        OFFSET -0.000000 14.517291 0.000000
        CHANNELS 3 Zrotation Xrotation Yrotation
        JOINT Spine1
        {
            OFFSET -0.000000 37.558300 0.000000
            CHANNELS 3 Zrotation Xrotation Yrotation
            JOINT Neck
            {
                OFFSET -0.000000 37.404057 3.400369
                CHANNELS 3 Zrotation Xrotation Yrotation
                JOINT Head
                {
                    OFFSET -0.000000 24.785618 -3.540803
                    CHANNELS 3 Zrotation Xrotation Yrotation
                    End Site
                    {
                        OFFSET -0.000000 35.408028 0.000000
                    }
                }
            }
            JOINT LeftShoulder
            {
                OFFSET 6.992933 33.973492 -0.192664
                CHANNELS 3 Zrotation Xrotation Yrotation
                JOINT LeftArm
                {
                    OFFSET 21.527611 0.000000 0.000000
                    CHANNELS 3 Zrotation Xrotation Yrotation
                    JOINT LeftForeArm
                    {
                        OFFSET 56.353916 0.000000 0.000000
                        CHANNELS 3 Zrotation Xrotation Yrotation
                        JOINT LeftHand
                        {
                            OFFSET 47.774071 0.000000 0.000000
                            CHANNELS 3 Zrotation Xrotation Yrotation
                            End Site
                            {
                                OFFSET 26.556021 0.000000 0.000000
                            }
                        }
                    }
                }
            }
            JOINT RightShoulder
            {
                OFFSET -7.065357 33.973492 -0.192664
                CHANNELS 3 Zrotation Xrotation Yrotation
                JOINT RightArm
                {
                    OFFSET -21.527611 0.000000 0.000000
                    CHANNELS 3 Zrotation Xrotation Yrotation
                    JOINT RightForeArm
                    {
                        OFFSET -56.353916 0.000000 0.000000
                        CHANNELS 3 Zrotation Xrotation Yrotation
                        JOINT RightHand
                        {
                            OFFSET -47.774071 0.000000 0.000000
                            CHANNELS 3 Zrotation Xrotation Yrotation
                            End Site
                            {
                                OFFSET -26.556021 0.000000 0.000000
                            }
                        }
                    }
                }
            }
        }
    }
    JOINT LeftUpLeg
    {
        OFFSET 17.704014 0.000000 0.000000
        CHANNELS 3 Zrotation Xrotation Yrotation
        JOINT LeftLeg
        {
            OFFSET -0.000000 -81.181816 0.000000
            CHANNELS 3 Zrotation Xrotation Yrotation
            JOINT LeftFoot
            {
                OFFSET -0.000000 -62.821102 0.000000
                CHANNELS 3 Zrotation Xrotation Yrotation
                JOINT LeftToeBase
                {
                    OFFSET -0.000000 -11.507608 26.556021
                    CHANNELS 3 Zrotation Xrotation Yrotation
                    End Site
                    {
                        OFFSET -0.000000 0.000000 7.081605
                    }
                }
            }
        }
    }
    JOINT RightUpLeg
    {
        OFFSET -17.704014 0.000000 0.000000
        CHANNELS 3 Zrotation Xrotation Yrotation
        JOINT RightLeg
        {
            OFFSET -0.000000 -81.181816 0.000000
            CHANNELS 3 Zrotation Xrotation Yrotation
            JOINT RightFoot
            {
                OFFSET -0.000000 -62.821102 0.000000
                CHANNELS 3 Zrotation Xrotation Yrotation
                JOINT RightToeBase
                {
                    OFFSET -0.000000 -11.507608 26.556021
                    CHANNELS 3 Zrotation Xrotation Yrotation
                    End Site
                    {
                        OFFSET -0.000000 0.000000 7.081605
                    }
                }
            }
        }
    }
}
MOTION
Frames:    9
Frame Time:    0.008333
-6.365849    152.198364    -13.245782    -0.599686    0.702441    20.261511    -0.239005    1.024152    12.084340    -0.588349    0.209386    4.028950    -10.978787    2.675478    -17.502089    20.588358    0.628891    -14.095604    6.352970    -2.913676    -3.143563    -30.964537    20.487398    9.884743    -16.166021    5.242271    -138.522537    2.933900    -37.247986    -9.753603    -13.850666    3.854213    7.310606    22.893711    -17.646749    53.409336    -7.864881    -20.890118    11.748960    12.055977    -15.933910    40.071899    1.796762    -34.044685    -27.630686    -11.043359    22.705437    -20.055511    -9.870206    2.721660    29.688526    0.000000    0.000000    0.000000    2.524263    12.459484    -10.482008    3.625484    21.816954    -0.732623    -3.182607    -29.917139    -7.431546    0.000000    0.000000    0.000000    
-6.388994    152.192795    -13.254735    -0.608298    0.709631    20.275181    -0.229914    1.019801    12.067455    -0.633848    0.216915    4.023477    -10.956896    2.652412    -17.492653    20.554352    0.636475    -14.092122    6.253789    -2.878936    -3.206738    -30.961288    20.349457    9.427819    -16.200201    5.045424    -138.409683    3.085410    -37.377552    -9.516644    -13.846675    3.832868    7.326221    22.828175    -17.648659    53.407959    -7.872114    -20.916605    11.723570    12.077130    -15.951792    40.096714    1.808061    -34.064064    -27.603544    -11.035544    22.708910    -20.087631    -9.894871    2.717908    29.678305    0.000000    0.000000    0.000000    2.539087    12.429795    -10.464610    3.635538    21.848841    -0.771783    -3.177554    -29.931978    -7.436143    0.000000    0.000000    0.000000    
-6.409933    152.191589    -13.262121    -0.616059    0.716269    20.293741    -0.214921    1.015103    12.051050    -0.698116    0.225421    4.018217    -10.898752    2.658057    -17.478197    20.515059    0.595567    -14.082908    6.165190    -2.849588    -3.268968    -30.982035    20.250393    8.967299    -16.228651    4.831341    -138.316666    3.291755    -37.531929    -9.377078    -13.834770    3.811960    7.349555    22.817133    -17.715322    53.407738    -7.832882    -20.926317    11.717484    12.065856    -15.969731    40.099831    1.813670    -34.081917    -27.604431    -11.037181    22.704163    -20.096605    -9.916565    2.723845    29.683449    0.000000    0.000000    0.000000    2.554145    12.397886    -10.465624    3.637992    21.888180    -0.751394    -3.218897    -29.936897    -7.482353    0.000000    0.000000    0.000000    
-6.432329    152.189713    -13.272871    -0.627962    0.728431    20.305799    -0.196277    1.009934    12.040870    -0.765632    0.226126    4.015017    -10.850793    2.651694    -17.460598    20.480392    0.578809    -14.071575    6.058125    -2.809322    -3.334473    -31.026321    20.221067    8.448990    -16.162928    4.403341    -138.253021    3.327457    -37.642700    -9.199365    -13.817073    3.783114    7.370708    22.753412    -17.712507    53.381367    -7.846131    -20.960573    11.720343    12.081895    -15.999907    40.081490    1.830242    -34.105000    -27.598442    -11.047264    22.695606    -20.094189    -9.934426    2.727024    29.684664    0.000000    0.000000    0.000000    2.572042    12.351342    -10.482096    3.624080    21.941072    -0.765003    -3.218524    -29.941799    -7.473714    0.000000    0.000000    0.000000    
-6.450690    152.186844    -13.282945    -0.634848    0.737825    20.320381    -0.182017    1.007656    12.035196    -0.825563    0.227723    4.013304    -10.812005    2.688132    -17.450695    20.473135    0.506645    -14.057812    5.931688    -2.776224    -3.417515    -31.011732    20.085041    7.892110    -16.131136    4.201021    -138.151733    3.567603    -37.632969    -9.046495    -13.813044    3.761099    7.386332    22.732306    -17.756325    53.369587    -7.831042    -20.963547    11.727859    12.097936    -15.996074    40.100510    1.839720    -34.117237    -27.608984    -11.054152    22.673489    -20.086706    -9.943326    2.736798    29.678940    0.000000    0.000000    0.000000    2.579954    12.309429    -10.478846    3.632343    21.997507    -0.790285    -3.201096    -29.958414    -7.474483    0.000000    0.000000    0.000000    
-6.470599    152.183502    -13.293997    -0.639060    0.745299    20.336906    -0.167145    1.008974    12.020368    -0.898818    0.226827    4.008537    -10.756454    2.705378    -17.432861    20.449047    0.464612    -14.043604    5.830178    -2.740899    -3.493932    -31.081530    20.047691    7.335272    -16.051191    3.746641    -138.057541    3.361513    -37.690193    -9.059278    -13.774487    3.611898    7.526970    22.650198    -17.752300    53.168800    -7.792067    -20.961504    11.770372    12.129392    -15.980742    40.127155    1.840543    -34.130859    -27.596666    -11.046108    22.669550    -20.111073    -9.946655    2.751981    29.677002    0.000000    0.000000    0.000000    2.588315    12.273103    -10.491936    3.627689    22.047989    -0.775989    -3.203433    -29.969748    -7.489809    0.000000    0.000000    0.000000    
-6.488169    152.174210    -13.303772    -0.634979    0.746802    20.354120    -0.160112    1.012390    12.010425    -0.961019    0.233095    4.005419    -10.711230    2.741978    -17.417353    20.438721    0.398542    -14.026256    5.719120    -2.705664    -3.584614    -31.145216    19.956947    6.728824    -15.920919    3.355522    -137.961273    3.401916    -37.587337    -8.932333    -13.772175    3.588645    7.553382    22.603573    -17.779335    53.138466    -7.793791    -20.969744    11.781622    12.172100    -15.970016    40.154053    1.834413    -34.131779    -27.591795    -11.035851    22.660107    -20.127426    -9.960345    2.754723    29.672640    0.000000    0.000000    0.000000    2.588808    12.252495    -10.514729    3.628585    22.088255    -0.796388    -3.212246    -29.995754    -7.464759    0.000000    0.000000    0.000000    
-6.503394    152.165634    -13.315839    -0.628916    0.746702    20.378252    -0.157092    1.015774    12.005363    -1.023712    0.244963    4.003967    -10.642842    2.772999    -17.398705    20.414888    0.320666    -14.007746    5.605700    -2.646858    -3.658654    -31.171833    19.836475    5.974885    -15.866046    3.057041    -137.849701    3.620095    -37.589214    -8.712102    -13.763000    3.554907    7.571863    22.558622    -17.819122    53.099865    -7.791299    -20.958750    11.788333    12.240381    -15.933323    40.161400    1.807938    -34.151104    -27.426218    -10.958897    22.719900    -20.317291    -9.972118    2.761611    29.677017    0.000000    0.000000    0.000000    2.583722    12.234243    -10.549350    3.630744    22.135960    -0.763619    -3.225009    -30.023542    -7.471670    0.000000    0.000000    0.000000    
-6.522161    152.153397    -13.323641    -0.623112    0.741802    20.399275    -0.154082    1.008248    11.998537    -1.080732    0.278079    4.002130    -10.596658    2.796641    -17.388803    20.418383    0.267116    -13.995442    5.495826    -2.595668    -3.748645    -31.229343    19.745483    5.248570    -15.735092    2.641758    -137.731445    3.574836    -37.483395    -8.608799    -13.781253    3.644655    7.493312    22.545898    -17.902878    53.238003    -7.818156    -20.957769    11.753743    12.288308    -15.910196    40.200886    1.798359    -34.150234    -27.415333    -10.950094    22.717325    -20.340624    -9.976043    2.763984    29.678299    0.000000    0.000000    0.000000    2.584004    12.223481    -10.567365    3.635654    22.173708    -0.798174    -3.207602    -30.056786    -7.430731    0.000000    0.000000    0.000000    
